<svg width="200" height="200" viewBox="0 0 200 200" fill="none" xmlns="http://www.w3.org/2000/svg">
<rect x="2" y="2" width="196" height="196" rx="48" fill="white" stroke="black" stroke-width="4"/>
<path d="M115.728 98.128C128.101 100.517 134.288 108.709 134.288 122.704C134.288 129.531 132.155 135.12 127.888 139.472C123.707 143.824 117.733 146 109.968 146H65.808C64.528 146 63.888 145.36 63.888 144.08C63.888 142.8 64.528 142.16 65.808 142.16H74.768C76.048 142.16 76.688 141.52 76.688 140.24V62.16C76.688 60.88 76.048 60.24 74.768 60.24H65.808C64.528 60.24 63.888 59.6 63.888 58.32C63.888 57.04 64.528 56.4 65.808 56.4H104.848C111.675 56.4 117.221 58.5333 121.488 62.8C125.755 67.0667 127.888 72.4 127.888 78.8C127.888 87.8453 123.835 94.288 115.728 98.128ZM80.528 95.44C80.528 96.72 81.168 97.36 82.448 97.36H105.488C110.864 97.36 115.301 95.568 118.8 91.984C122.299 88.3147 124.048 83.8347 124.048 78.544C124.048 73.2533 122.299 68.9013 118.8 65.488C115.387 61.9893 110.736 60.24 104.848 60.24H82.448C81.168 60.24 80.528 60.88 80.528 62.16V95.44ZM80.528 140.24C80.528 141.52 81.168 142.16 82.448 142.16H109.968C116.368 142.16 121.36 140.368 124.944 136.784C128.613 133.115 130.448 128.08 130.448 121.68C130.448 115.28 128.613 110.288 124.944 106.704C121.36 103.035 116.368 101.2 109.968 101.2H82.448C81.168 101.2 80.528 101.84 80.528 103.12V140.24Z" fill="black"/>
</svg>
